<?xml version="1.0" encoding="iso-8859-1"?>
<!-- Generator: Adobe Illustrator 19.1.0, SVG Export Plug-In . SVG Version: 6.00 Build 0)  -->
<svg version="1.1" id="Capa_1" xmlns="http://www.w3.org/2000/svg" xmlns:xlink="http://www.w3.org/1999/xlink" x="0px" y="0px"
	 viewBox="0 0 64 64" style="enable-background:new 0 0 64 64;" xml:space="preserve">
<path d="M31,0c-0.68,0-1.375,0.023-2.064,0.068l0.132,1.996C29.711,2.021,30.354,2,31,2V0z M0.41,36.055l1.974-0.326
	c-0.218-1.317-0.344-2.667-0.376-4.009l-1.999,0.047C0.042,33.202,0.177,34.645,0.41,36.055z M0.03,29.613l1.998,0.09
	c0.06-1.339,0.214-2.686,0.458-4.004l-1.967-0.363C0.26,26.743,0.095,28.183,0.03,29.613z M0.985,23.231l1.937,0.5
	c0.335-1.3,0.764-2.586,1.275-3.82l-1.849-0.764C1.803,20.468,1.344,21.842,0.985,23.231z M7.844,48.432l2.948,2.949l-1.414,1.414
	l-2.948-2.949L7.844,48.432z M26.792,0.284c-1.419,0.194-2.838,0.488-4.215,0.875l0.541,1.926c1.289-0.362,2.616-0.638,3.944-0.818
	L26.792,0.284z M20.525,1.815c-1.35,0.483-2.676,1.065-3.943,1.732l0.931,1.77c1.185-0.622,2.425-1.167,3.686-1.619L20.525,1.815z
	 M2.966,44.256c0.613,1.295,1.323,2.558,2.109,3.754l1.671-1.1c-0.736-1.118-1.399-2.299-1.973-3.51L2.966,44.256z M3.24,17.186
	l1.791,0.891c0.595-1.196,1.282-2.364,2.042-3.471l-1.648-1.133C4.612,14.656,3.877,15.905,3.24,17.186z M0.832,38.167
	c0.33,1.393,0.761,2.775,1.281,4.109l1.863-0.727c-0.487-1.248-0.89-2.541-1.198-3.844L0.832,38.167z M15.765,6.316l-1.053-1.701
	c-1.219,0.755-2.394,1.601-3.494,2.516l1.278,1.537C13.525,7.813,14.624,7.021,15.765,6.316z M9.08,9.08
	c-0.84,0.841-1.639,1.735-2.374,2.66l1.566,1.244c0.688-0.865,1.435-1.703,2.224-2.492c0.164-0.165,0.329-0.325,0.496-0.484
	L9.611,8.561C9.432,8.731,9.254,8.905,9.08,9.08z M33,62v2c0.68,0,1.375-0.023,2.064-0.068l-0.132-1.996
	C34.289,61.979,33.645,62,33,62z M61.884,21.724l-1.863,0.727c0.487,1.248,0.89,2.541,1.198,3.844l1.946-0.461
	C62.837,24.44,62.405,23.058,61.884,21.724z M63.014,40.769l-1.937-0.5c-0.335,1.3-0.764,2.586-1.275,3.82l1.849,0.764
	C62.195,43.532,62.654,42.158,63.014,40.769z M61.616,28.271c0.218,1.317,0.344,2.667,0.376,4.009l1.999-0.047
	c-0.034-1.436-0.169-2.878-0.402-4.288L61.616,28.271z M61.512,38.301l1.967,0.363c0.26-1.407,0.425-2.847,0.49-4.277l-1.998-0.09
	C61.91,35.636,61.756,36.982,61.512,38.301z M49.286,59.385c1.219-0.755,2.394-1.601,3.494-2.516l-1.278-1.537
	c-1.029,0.854-2.128,1.646-3.269,2.352L49.286,59.385z M54.388,55.439c0.179-0.171,0.357-0.345,0.531-0.52
	c0.84-0.841,1.639-1.735,2.374-2.66l-1.566-1.244c-0.688,0.865-1.435,1.703-2.224,2.492c-0.164,0.165-0.329,0.325-0.496,0.484
	L54.388,55.439z M60.758,46.814l-1.791-0.891c-0.595,1.196-1.282,2.364-2.042,3.471l1.648,1.133
	C59.387,49.344,60.122,48.095,60.758,46.814z M40.88,60.915c-1.289,0.362-2.616,0.638-3.944,0.818l0.271,1.982
	c1.419-0.194,2.838-0.488,4.215-0.875L40.88,60.915z M46.486,58.683c-1.185,0.622-2.425,1.167-3.686,1.619l0.674,1.883
	c1.35-0.483,2.676-1.065,3.943-1.732L46.486,58.683z M61.033,19.744c-0.613-1.295-1.323-2.558-2.109-3.754l-1.671,1.1
	c0.736,1.118,1.399,2.299,1.973,3.51L61.033,19.744z M56.157,15.564l-2.948-2.949l1.414-1.414l2.948,2.949L56.157,15.564z M1.999,54
	v2h11l1-1V44h-2v9.172L11.171,54H1.999z M50,9v11h2v-9.172L52.827,10H62V8H51L50,9z"/>
<g>
</g>
<g>
</g>
<g>
</g>
<g>
</g>
<g>
</g>
<g>
</g>
<g>
</g>
<g>
</g>
<g>
</g>
<g>
</g>
<g>
</g>
<g>
</g>
<g>
</g>
<g>
</g>
<g>
</g>
</svg>
