<?xml version="1.0" encoding="iso-8859-1"?>
<!-- Generator: Adobe Illustrator 19.1.0, SVG Export Plug-In . SVG Version: 6.00 Build 0)  -->
<svg version="1.1" id="Capa_1" xmlns="http://www.w3.org/2000/svg" xmlns:xlink="http://www.w3.org/1999/xlink" x="0px" y="0px"
	 viewBox="0 0 63.414 63.414" style="enable-background:new 0 0 63.414 63.414;" xml:space="preserve">
<g>
	<g>
		<polygon points="1.414,63.414 21.707,43.121 21.707,51.707 23.707,51.707 23.707,40.707 22.707,39.707 11.707,39.707 
			11.707,41.707 20.293,41.707 0,62 		"/>
		<polygon points="39.707,51.707 41.707,51.707 41.707,43.121 62,63.414 63.414,62 43.121,41.707 51.707,41.707 51.707,39.707 
			40.707,39.707 39.707,40.707 		"/>
		<polygon points="39.707,11.707 39.707,22.707 40.707,23.707 51.707,23.707 51.707,21.707 43.121,21.707 63.414,1.414 62,0 
			41.707,20.293 41.707,11.707 		"/>
		<polygon points="11.707,23.707 22.707,23.707 23.707,22.707 23.707,11.707 21.707,11.707 21.707,20.293 1.414,0 0,1.414 
			20.293,21.707 11.707,21.707 		"/>
	</g>
</g>
<g>
</g>
<g>
</g>
<g>
</g>
<g>
</g>
<g>
</g>
<g>
</g>
<g>
</g>
<g>
</g>
<g>
</g>
<g>
</g>
<g>
</g>
<g>
</g>
<g>
</g>
<g>
</g>
<g>
</g>
</svg>
